<?xml version="1.0" ?><svg height="32" id="svg4050" version="1.1" viewBox="0 0 32 32.000001" width="32" xmlns="http://www.w3.org/2000/svg" xmlns:cc="http://creativecommons.org/ns#" xmlns:dc="http://purl.org/dc/elements/1.1/" xmlns:inkscape="http://www.inkscape.org/namespaces/inkscape" xmlns:rdf="http://www.w3.org/1999/02/22-rdf-syntax-ns#" xmlns:sodipodi="http://sodipodi.sourceforge.net/DTD/sodipodi-0.dtd" xmlns:svg="http://www.w3.org/2000/svg"><defs id="defs4052"/><g id="layer1" transform="translate(0,-1020.3622)"><path fill="#e2f3f7" d="M 7 7 C 5.9006421 7 5 7.9007 5 9 L 5 10 L 3.5 10 A 0.50005 0.50005 0 0 0 3 10.5 L 3 23.5 A 0.50005 0.50005 0 0 0 3.5 24 L 13.945312 24 A 0.50005 0.50005 0 0 0 14.433594 23.609375 L 14.568359 23 L 17.431641 23 L 17.566406 23.609375 A 0.50005 0.50005 0 0 0 18.054688 24 L 28.5 24 A 0.50005 0.50005 0 0 0 29 23.5 L 29 10.5 A 0.50005 0.50005 0 0 0 28.5 10 L 26.998047 10 L 26.998047 9.5761719 L 27 9 C 27 7.9007 26.099357 7 25 7 L 7 7 z M 7 8 L 25 8 C 25.562661 8 26 8.4374 26 9 L 25.998047 9.5761719 L 25.998047 10 L 6 10 L 6 9 C 6 8.4374 6.4373387 8 7 8 z M 4 11 L 26.455078 11 A 0.50004997 0.50004997 0 0 0 26.53125 11 L 28 11 L 28 23 L 18.455078 23 L 17.988281 20.892578 C 17.88389 20.422878 17.689726 19.970528 17.363281 19.611328 C 17.036837 19.252028 16.553647 19 16 19 C 15.446353 19 14.963163 19.252028 14.636719 19.611328 C 14.310274 19.970528 14.11611 20.422878 14.011719 20.892578 L 13.544922 23 L 4 23 L 4 11 z M 10 14 C 8.3490681 14 7 15.3491 7 17 C 7 18.651 8.3490681 20 10 20 C 11.650932 20 13 18.651 13 17 C 13 15.3491 11.650932 14 10 14 z M 22 14 C 20.349068 14 19 15.3491 19 17 C 19 18.651 20.349068 20 22 20 C 23.650932 20 25 18.651 25 17 C 25 15.3491 23.650932 14 22 14 z M 10 15 C 11.110492 15 12 15.8895 12 17 C 12 18.1105 11.110492 19 10 19 C 8.8895082 19 8 18.1105 8 17 C 8 15.8895 8.8895082 15 10 15 z M 22 15 C 23.110492 15 24 15.8895 24 17 C 24 18.1105 23.110492 19 22 19 C 20.889508 19 20 18.1105 20 17 C 20 15.8895 20.889508 15 22 15 z M 16 20 C 16.277353 20 16.452309 20.095003 16.623047 20.283203 C 16.793785 20.471103 16.935841 20.767975 17.011719 21.109375 L 17.208984 22 L 14.791016 22 L 14.988281 21.109375 C 15.064161 20.767975 15.206215 20.471103 15.376953 20.283203 C 15.547691 20.095303 15.722647 20 16 20 z " id="rect4598" style="color:#e2f3f7;font-style:normal;font-variant:normal;font-weight:normal;font-stretch:normal;font-size:medium;line-height:normal;font-family:sans-serif;text-indent:0;text-align:start;text-decoration:none;text-decoration-line:none;text-decoration-style:solid;text-decoration-color:#e2f3f7;letter-spacing:normal;word-spacing:normal;text-transform:none;direction:ltr;block-progression:tb;writing-mode:lr-tb;baseline-shift:baseline;text-anchor:start;white-space:normal;clip-rule:nonzero;display:inline;overflow:visible;visibility:visible;opacity:1;isolation:auto;mix-blend-mode:normal;color-interpolation:sRGB;color-interpolation-filters:linearRGB;solid-color:#e2f3f7;solid-opacity:1;fill:#e2f3f7;fill-opacity:1;fill-rule:nonzero;stroke:none;stroke-width:0.99999994;stroke-linecap:round;stroke-linejoin:round;stroke-miterlimit:4;stroke-dasharray:none;stroke-dashoffset:0;stroke-opacity:1;color-rendering:auto;image-rendering:auto;shape-rendering:auto;text-rendering:auto;enable-background:accumulate" transform="translate(0,1020.3622)"/></g></svg>